<mxfile host="app.diagrams.net" modified="2023-09-19T20:39:46.761Z" agent="Mozilla/5.0 (Windows NT 10.0; Win64; x64) AppleWebKit/537.36 (KHTML, like Gecko) Chrome/116.0.0.0 Safari/537.36" etag="7ATorZ9_j2s8S9F3kS0l" version="21.7.4" type="github">
  <diagram name="Page-1" id="lCDHvuFwO_Oo8ZvdKnjj">
    <mxGraphModel dx="2284" dy="758" grid="1" gridSize="10" guides="1" tooltips="1" connect="1" arrows="1" fold="1" page="1" pageScale="1" pageWidth="850" pageHeight="1100" math="0" shadow="0">
      <root>
        <mxCell id="0" />
        <mxCell id="1" parent="0" />
        <mxCell id="qOTQIHq2Qko7lhdbGlyr-1" value="Request &#39;charge&#39; = true" style="rounded=0;whiteSpace=wrap;html=1;strokeColor=#999999;fillColor=#FFFFFF;labelBackgroundColor=none;" parent="1" vertex="1">
          <mxGeometry x="160" y="41" width="139" height="60" as="geometry" />
        </mxCell>
        <mxCell id="qOTQIHq2Qko7lhdbGlyr-6" value="" style="endArrow=classic;html=1;rounded=0;strokeColor=#999999;fillColor=#FFFFFF;labelBackgroundColor=none;" parent="1" edge="1">
          <mxGeometry width="50" height="50" relative="1" as="geometry">
            <mxPoint x="418" y="70" as="sourcePoint" />
            <mxPoint x="448" y="70" as="targetPoint" />
          </mxGeometry>
        </mxCell>
        <mxCell id="qOTQIHq2Qko7lhdbGlyr-7" value="OrderCounties" style="rounded=0;whiteSpace=wrap;html=1;strokeColor=#999999;fillColor=#FFFFFF;labelBackgroundColor=none;" parent="1" vertex="1">
          <mxGeometry x="327" y="39" width="89" height="60" as="geometry" />
        </mxCell>
        <mxCell id="qOTQIHq2Qko7lhdbGlyr-8" value="" style="endArrow=classic;html=1;rounded=0;" parent="1" edge="1">
          <mxGeometry width="50" height="50" relative="1" as="geometry">
            <mxPoint x="1960" y="350" as="sourcePoint" />
            <mxPoint x="1990" y="350" as="targetPoint" />
          </mxGeometry>
        </mxCell>
        <mxCell id="qOTQIHq2Qko7lhdbGlyr-9" value="AdminCountyAddonController invoked" style="rounded=0;whiteSpace=wrap;html=1;strokeColor=#999999;fillColor=#FFFFFF;labelBackgroundColor=none;" parent="1" vertex="1">
          <mxGeometry x="-40" y="41" width="173" height="60" as="geometry" />
        </mxCell>
        <mxCell id="qOTQIHq2Qko7lhdbGlyr-10" value="" style="endArrow=classic;html=1;rounded=0;strokeColor=#999999;fillColor=#FFFFFF;labelBackgroundColor=none;" parent="1" edge="1">
          <mxGeometry width="50" height="50" relative="1" as="geometry">
            <mxPoint x="133" y="71" as="sourcePoint" />
            <mxPoint x="163" y="71" as="targetPoint" />
          </mxGeometry>
        </mxCell>
        <mxCell id="qOTQIHq2Qko7lhdbGlyr-11" value="StartCountyCheckJob" style="rounded=0;whiteSpace=wrap;html=1;strokeColor=#999999;fillColor=#FFFFFF;labelBackgroundColor=none;" parent="1" vertex="1">
          <mxGeometry x="617" y="39" width="129" height="60" as="geometry" />
        </mxCell>
        <mxCell id="qOTQIHq2Qko7lhdbGlyr-12" value="" style="endArrow=classic;html=1;rounded=0;strokeColor=#999999;fillColor=#FFFFFF;labelBackgroundColor=none;" parent="1" edge="1">
          <mxGeometry width="50" height="50" relative="1" as="geometry">
            <mxPoint x="587" y="69" as="sourcePoint" />
            <mxPoint x="617" y="69" as="targetPoint" />
          </mxGeometry>
        </mxCell>
        <mxCell id="qOTQIHq2Qko7lhdbGlyr-13" value="" style="endArrow=classic;html=1;rounded=0;strokeColor=#999999;fillColor=#FFFFFF;labelBackgroundColor=none;" parent="1" edge="1">
          <mxGeometry width="50" height="50" relative="1" as="geometry">
            <mxPoint x="298" y="69" as="sourcePoint" />
            <mxPoint x="328" y="69" as="targetPoint" />
          </mxGeometry>
        </mxCell>
        <mxCell id="qOTQIHq2Qko7lhdbGlyr-14" value="County Criminal Check saved event" style="rounded=0;whiteSpace=wrap;html=1;strokeColor=#999999;fillColor=#FFFFFF;labelBackgroundColor=none;" parent="1" vertex="1">
          <mxGeometry x="448" y="39" width="138" height="60" as="geometry" />
        </mxCell>
      </root>
    </mxGraphModel>
  </diagram>
</mxfile>
